<?xml version="1.0" standalone="no"?><!DOCTYPE svg PUBLIC "-//W3C//DTD SVG 1.1//EN" "http://www.w3.org/Graphics/SVG/1.1/DTD/svg11.dtd"><svg t="1529937185835" class="icon" style="" viewBox="0 0 1024 1024" version="1.1" xmlns="http://www.w3.org/2000/svg" p-id="12357" xmlns:xlink="http://www.w3.org/1999/xlink" width="200" height="200"><defs><style type="text/css"></style></defs><path d="M772.096 440.832c0 0.512 0 0.512 0 0zM846.848 690.688l-162.304-162.304 87.04-87.04 0.512-0.512 60.928-60.928c9.216-9.216 14.848-21.504 15.36-34.816 0.512-13.312-4.096-26.112-13.312-35.328l-102.4-102.4c-8.704-8.704-20.48-13.312-33.28-13.312-13.312 0-26.624 5.632-36.864 15.36l-148.48 148.48-161.792-162.304c-9.216-9.216-20.992-13.824-33.792-13.824s-25.088 5.12-33.792 13.824l-107.52 107.52c-9.216 9.216-13.824 20.992-13.824 33.792s5.12 25.088 13.824 33.792l162.304 162.304-123.392 123.392c-0.512 0.512-0.512 1.024-1.024 1.536-0.512 0.512-1.024 1.024-1.024 2.048-0.512 1.024-1.024 2.048-1.536 3.584 0 0.512-0.512 1.024-0.512 1.024l-29.184 177.664v5.632c0 1.024 0.512 1.536 1.024 2.048l1.536 3.072 1.536 1.536c0.512 1.024 1.536 1.536 2.56 2.048 0.512 0.512 1.536 1.024 2.048 1.024 1.024 0.512 2.048 1.024 3.072 1.024 0.512 0 1.024 0.512 1.536 0.512h5.12l177.664-29.184c1.024 0 1.536-0.512 2.048-1.024 0.512 0 1.024-0.512 2.048-0.512 1.536-0.512 2.56-1.536 3.584-2.56 0.512 0 0.512-0.512 1.024-0.512l123.392-123.392 111.104 111.104 51.2 51.2c9.216 9.216 20.992 13.824 33.792 13.824s25.088-5.12 33.792-13.824l107.008-107.008c9.216-9.216 13.824-20.992 13.824-33.792-0.512-11.776-5.632-23.552-14.848-32.768zM221.696 821.248l19.456-117.248 98.304 98.304-117.76 18.944z m142.848-313.344l-43.52-43.52 67.072-67.072c6.144-6.144 4.608-17.408-1.536-23.552-6.144-6.144-17.92-7.168-24.064-1.024l-66.56 66.56-31.232-31.232L332.8 340.992c6.144-6.144 5.12-16.384-1.024-22.528-6.144-6.144-17.92-7.68-24.064-1.536L240.64 384l-34.304-34.304c-3.072-3.072-4.608-7.168-4.608-11.776 0-4.096 1.536-8.192 4.608-11.776L308.224 225.28c3.072-3.072 7.168-4.608 11.776-4.608 4.096 0 8.704 1.536 11.776 4.608l158.208 158.208-125.44 124.416z m313.344-264.704c4.096-4.096 8.704-8.704 15.36-9.216 6.144-0.512 11.264 1.536 13.824 4.096l97.792 97.792c3.072 3.072 4.608 7.68 4.096 12.288-0.512 5.12-6.144 12.288-10.24 15.872l-40.96 40.96-121.344-121.344 41.472-40.448z m139.264 491.52l-101.376 101.376c-3.072 3.072-7.168 4.608-11.776 4.608-4.096 0-8.192-1.536-11.776-4.608l-34.304-34.304 67.072-67.072c6.144-6.144 4.096-17.408-2.048-23.552-6.144-6.144-17.92-7.168-24.064-1.024l-66.56 66.56-30.208-30.208 66.048-66.048c6.144-6.144 5.632-17.92-0.512-24.064-6.144-6.144-19.456-7.168-25.6-1.024l-66.048 66.048-42.496-42.496 124.416-124.416 158.208 158.208c3.072 3.072 4.608 7.168 4.608 11.776s-0.512 7.168-3.584 10.24z" fill="" p-id="12358"></path></svg>