<?xml version="1.0" standalone="no"?><!DOCTYPE svg PUBLIC "-//W3C//DTD SVG 1.1//EN" "http://www.w3.org/Graphics/SVG/1.1/DTD/svg11.dtd"><svg t="1530166077577" class="icon" style="fill:white;" viewBox="0 0 1024 1024" version="1.1" xmlns="http://www.w3.org/2000/svg" p-id="12834" xmlns:xlink="http://www.w3.org/1999/xlink" width="200" height="200"><defs><style type="text/css"></style></defs><path d="M511.73288105 118.26585195c-217.33314786 0-393.51559658 176.18334786-393.51559658 393.51559659S294.3997332 905.29794424 511.73288105 905.29794424s393.51559658-176.18334786 393.51559658-393.51559658S729.06512979 118.26585195 511.73288105 118.26585195zM511.73288105 869.52379854c-197.25875859 0-357.74145088-160.48269316-357.74145087-357.74145088s160.48269316-357.74145088 357.74145088-357.74145088 357.74145088 160.48269316 357.74145087 357.74145088S708.99163965 869.52379854 511.73288105 869.52379854zM418.57134453 332.91162177c0-30.87156885-15.64129512-58.08891533-39.43196542-74.16101865-14.27332237-9.64326182-31.48135576-15.27434385-50.00429708-15.27434385-49.39361104 0-89.4353625 40.04175146-89.4353625 89.4353625s40.04175146 89.4353625 89.4353625 89.43536251c18.52294131 0 35.73007471-5.63108203 50.00429708-15.27434385C402.92915029 391.00053799 418.57134453 363.78229151 418.57134453 332.91162177zM490.59990898 330.88709463c5.34957276 2.26286543 11.23248427 3.51391729 17.40679805 3.51391728 24.69725508 0 44.71768125-20.02042617 44.71768125-44.71768125 0-24.69635596-20.02042617-44.71768125-44.71768125-44.71768125-6.17341465 0-12.05722529 1.25105185-17.40679805 3.51391729-8.02525869 3.39429902-14.8534295 9.06495381-19.67416083 16.20161543s-7.63672237 15.74112744-7.63672237 25.00214854c0 9.26102109 2.81599102 17.86548692 7.63672237 25.00214853C475.7464795 321.82393906 482.57465029 327.4927956 490.59990898 330.88709463zM605.23258818 338.69020362c4.75777441 3.21442031 10.16760674 5.53754531 15.98935958 6.72833847 2.91042685 0.5962957 5.92518252 0.90838388 9.01278896 0.90838388 24.69725508 0 44.71768125-20.02042617 44.71768125-44.71768125 0-24.69725508-20.02042617-44.71768125-44.71768125-44.71768125-3.08760644 0-6.10146299 0.31208818-9.01278896 0.9083839-5.82265195 1.19079229-11.23158516 3.51391729-15.98935958 6.72833847-11.89443516 8.03605166-19.71553271 21.6447249-19.71553271 37.08095888S593.33815302 330.65325283 605.23258818 338.69020362zM737.55717208 316.51483906c-3.08760644 0-6.10146299 0.31208818-9.01278898 0.90838389-5.82265195 1.19079229-11.23158516 3.51391729-15.98935956 6.72833848-11.89443516 8.03605166-19.71553271 21.64562403-19.71553272 37.08095888 0 15.43623398 7.82109756 29.04490722 19.71553272 37.08095889 4.75777441 3.21442031 10.16760674 5.53754531 15.98935956 6.72833848 2.91042685 0.5962957 5.92518252 0.90838388 9.01278897 0.90838388 24.69725508 0 44.71768125-20.02042617 44.71768126-44.71768125C782.27485332 336.53616435 762.25442715 316.51483906 737.55717208 316.51483906zM723.77851396 498.20875068c-0.18077783-1.55864356-0.43800293-3.05972578-0.66375-4.58778954-0.53243877-3.60025927-1.17820107-7.11777393-1.95437461-10.54265186-0.34626533-1.52986289-0.69073154-3.05882578-1.08376523-4.5536124-0.99112763-3.76214942-2.13335332-7.40557881-3.41138672-10.94827677-0.3075917-0.85172256-0.55492383-1.7511126-0.87780498-2.59024394-1.659375-4.3071794-3.54359707-8.43448183-5.60859697-12.41158535-0.53513701-1.02980214-1.13952744-1.99484737-1.70074688-3.00216446-1.63778994-2.94370401-3.36461836-5.80466426-5.21556415-8.5612957-0.79685947-1.1862958-1.61350576-2.35370391-2.44724063-3.50672256-1.90400888-2.6307167-3.91144834-5.16429844-6.00522803-7.61783554-0.76717969-0.89939004-1.49478662-1.8320581-2.28624961-2.70716485-2.90413125-3.21262207-5.94227109-6.28943555-9.15399316-9.18906943-0.53064053-0.4793748-1.10894854-0.90748477-1.64858203-1.37786572-2.75123497-2.40227138-5.59870401-4.69751484-8.54870362-6.87943565-1.10804854-0.82024365-2.24577773-1.60361279-3.37990869-2.39237753-2.59474042-1.80597568-5.25243867-3.52740849-7.97759121-5.17239317-1.14672217-0.69253067-2.27725576-1.39855166-3.44556387-2.06230166-3.57147862-2.02992364-7.22300273-3.95012198-10.98065478-5.71922226-0.28420752-0.13310947-0.55132646-0.28960401-0.83553311-0.42181436-4.06164638-1.88422207-8.24291104-3.57957334-12.49073086-5.16609756-1.24385625-0.46498448-2.51109756-0.87870411-3.76934414-1.31760703-3.11818623-1.0882626-6.27054873-2.10637177-9.4705787-3.04083808-1.42283496-0.41551787-2.84297256-0.82653926-4.27929873-1.21147823-3.50222519-0.93896367-7.04492315-1.78079238-10.62269825-2.54167646-0.99022852-0.21045762-1.96516758-0.45958799-2.96079258-0.6574544-4.55721065-0.90208828-9.16298789-1.659375-13.80923701-2.280854-1.13143271-0.15109717-2.27455752-0.24913125-3.40958848-0.38313985-3.58496982-0.42541172-7.18342998-0.78067089-10.80257607-1.04239336-1.53975586-0.11152442-3.07501523-0.20236289-4.61926846-0.28420752-3.45725596-0.18437519-6.9199084-0.28780489-10.38975556-0.32737763-0.94256104-0.01079297-1.87882646-0.08993935-2.82228663-0.08993936-0.39303369 0-0.78516739 0.03687539-1.17820107 0.03957276-5.03928369 0.02248506-10.07856651 0.18707344-15.11065459 0.50995459-0.99922237 0.06475605-1.99125 0.17358223-2.99047236 0.25003037-4.16237783 0.31658555-8.30676797 0.73570078-12.43946602 1.25464921-1.40484727 0.17717959-2.80429893 0.35346006-4.20464883 0.5522256-4.73708848 0.67454297-9.44899365 1.44621914-14.10873398 2.38338368-0.28150928 0.05666133-0.56841504 0.09533496-0.85172256 0.15289629-4.90167685 1.0019206-9.72870381 2.19361289-14.50896328 3.47974102-1.33199648 0.35885654-2.64420703 0.74199727-3.96631055 1.12333799-3.78283536 1.08916172-7.51260674 2.26736279-11.19291152 3.53280498-1.0756705 0.36964951-2.1639331 0.71051836-3.22791152 1.09635644-4.54641768 1.64318555-8.99839951 3.41588408-13.34515166 5.32618858-0.95605137 0.42001523-1.8743291 0.88230146-2.81958839 1.3158079-3.48693575 1.59821631-6.8947251 3.28187461-10.22516718 5.05367403-1.1620125 0.61788076-2.32222588 1.23126504-3.46445068 1.86983261-4.07783497 2.28085401-8.06932881 4.64535088-11.86385625 7.18882559-30.07650849 20.15803301-45.32926641 53.17284903-44.47934297 86.72280206 0.50905459 20.12925234 6.81467959 40.45097461 19.19298692 58.30476943 18.66864287 26.92324599 42.10405313 48.07780312 60.60001289 62.35112637 15.59812412 12.03653935 26.93313896 28.82995312 31.82402372 47.29713222 2.93471016 11.08048711 3.54899356 22.76266729 1.37336924 34.38188877-0.56301856 3.00756094-1.27983252 5.93687461-2.17382608 8.73128057-1.65397852 5.16699668-2.92571631 11.78650898-3.41138672 19.20198076-0.81124981 12.35762138 0.55852119 26.92414511 5.97285 40.65783399 3.24859746 8.23931367 7.95330791 16.17823125 14.51705714 23.16109658 10.93928291 11.63721006 27.04286513 20.61492276 50.17338281 23.89230087 1.81137217 0.25632597 3.70278984 0.40472578 5.54564004 0.40472578 0.25452773 0 0.50635635-0.00359737 0.75908496-0.00899384 77.24412862-1.75920732 157.85827207-30.17184346 153.3865043-301.83175811C724.79752315 508.55623526 724.37211143 503.32358252 723.77851396 498.20875068z" p-id="12835"></path></svg>